<svg width="238" height="82" viewBox="0 0 238 82" fill="none" xmlns="http://www.w3.org/2000/svg">
<g filter="url(#filter0_d_2035_272)">
<path d="M212.81 19.9647C212.81 18.3078 214.153 16.9647 215.81 16.9647H218.5C220.157 16.9647 221.5 18.3078 221.5 19.9647V62.2889C221.5 63.9458 220.157 65.2889 218.5 65.2889H215.286C214.235 65.2889 213.259 64.738 212.717 63.8369L195.489 35.2365C195.07 34.5421 194.003 34.8387 194.003 35.6493V62.2889C194.003 63.9458 192.66 65.2889 191.003 65.2889H188.313C186.656 65.2889 185.313 63.9458 185.313 62.2889V19.9647C185.313 18.3078 186.656 16.9647 188.313 16.9647H191.797C192.852 16.9647 193.829 17.5185 194.371 18.4233L211.323 46.7292C211.74 47.4256 212.81 47.1299 212.81 46.3182V19.9647Z" fill="white"/>
<path d="M16.8544 54.1626C16.4647 52.5522 17.8432 51.1902 19.5001 51.1902H22.1702C23.7988 51.1902 25.0813 52.5558 25.8425 53.9956C27.176 56.518 30.2076 58.3913 34.2028 58.3913C39.5825 58.3913 42.3874 55.3569 42.3874 51.5978C42.3874 47.8388 39.4906 46.2536 35.3523 45.1667L29.2368 43.4909C18.7071 40.8188 16.8679 34.5688 16.8679 30.3569C16.8679 21.7971 24.5008 16 33.513 16C41.487 16 47.8771 20.2901 49.2437 27.5527C49.5501 29.1809 48.1713 30.538 46.5145 30.538H43.916C42.2591 30.538 40.992 29.1297 40.2944 27.6268C39.176 25.2175 36.6264 23.654 33.2831 23.654C28.731 23.654 25.6043 26.4619 25.6043 30.2663C25.6043 34.0706 26.0181 34.3877 31.6738 35.8822L37.5134 37.558C45.1922 39.6413 51.1238 43.5815 51.1238 51.2808C51.1238 58.9801 43.6289 66 34.0188 66C25.6028 66 18.4915 60.9287 16.8544 54.1626Z" fill="white"/>
<path d="M68.5595 23.3223C60.1939 31.5621 59.2108 43.9741 65.0036 53.4606C65.9338 54.984 68.0521 55.0975 69.3283 53.8405L71.3218 51.877C72.3759 50.8387 72.4778 49.209 71.7713 47.916C68.4182 41.7793 68.9432 34.2812 74.2493 29.0548C79.5594 23.8246 87.2829 23.2084 93.5566 26.479C94.8697 27.1635 96.5171 27.0604 97.5676 26.0256L99.5434 24.0796C100.82 22.8226 100.704 20.7362 99.1577 19.8199C89.5264 14.1142 76.925 15.0825 68.5595 23.3223Z" fill="white"/>
<g filter="url(#filter1_i_2035_272)">
<path d="M101.727 30.0821C100.673 31.1201 100.572 32.7491 101.272 34.0448C104.631 40.2559 103.95 47.902 98.6671 53.1054C93.3893 58.3038 85.7269 58.853 79.476 55.5291C78.1613 54.8299 76.5022 54.928 75.4456 55.9687L73.4531 57.9313C72.1797 59.1856 72.291 61.2669 73.8316 62.1855C83.4673 67.9308 96.0905 66.916 104.455 58.6777C112.819 50.4394 113.849 38.0059 108.016 28.5151C107.083 26.9977 104.97 26.888 103.697 28.1423L101.727 30.0821Z" fill="white" fill-opacity="0.3"/>
</g>
<path d="M162.07 30.0534C161.018 31.0923 160.917 32.7228 161.615 34.0202C164.96 40.2346 164.271 47.8899 158.988 53.1055C153.711 58.3161 146.058 58.8756 139.819 55.5561C138.506 54.8573 136.849 54.9557 135.795 55.9973L133.797 57.9698C132.525 59.2258 132.636 61.3102 134.176 62.2289C143.792 67.967 156.399 66.9349 164.762 58.6777C173.125 50.4205 174.17 37.973 168.359 28.4782C167.428 26.9579 165.317 26.8477 164.045 28.1038L162.07 30.0534ZM128.954 23.3223C120.59 31.581 119.592 44.0069 125.363 53.4975C126.291 55.0237 128.407 55.1377 129.682 53.8789L131.681 51.9056C132.733 50.8663 132.835 49.2352 132.131 47.9405C128.79 41.8006 129.324 34.2936 134.63 29.0549C139.94 23.8124 147.654 23.1859 153.915 26.452C155.227 27.1361 156.872 27.0327 157.921 25.9969L159.902 24.0411C161.177 22.7823 161.061 20.6929 159.515 19.7765C149.903 14.0781 137.319 15.0636 128.954 23.3223Z" fill="white"/>
</g>
<defs>
<filter id="filter0_d_2035_272" x="0.5" y="-9.96503" width="237" height="101.93" filterUnits="userSpaceOnUse" color-interpolation-filters="sRGB">
<feFlood flood-opacity="0" result="BackgroundImageFix"/>
<feColorMatrix in="SourceAlpha" type="matrix" values="0 0 0 0 0 0 0 0 0 0 0 0 0 0 0 0 0 0 127 0" result="hardAlpha"/>
<feOffset/>
<feGaussianBlur stdDeviation="8"/>
<feComposite in2="hardAlpha" operator="out"/>
<feColorMatrix type="matrix" values="0 0 0 0 1 0 0 0 0 1 0 0 0 0 1 0 0 0 0.6 0"/>
<feBlend mode="normal" in2="BackgroundImageFix" result="effect1_dropShadow_2035_272"/>
<feBlend mode="normal" in="SourceGraphic" in2="effect1_dropShadow_2035_272" result="shape"/>
</filter>
<filter id="filter1_i_2035_272" x="72.5791" y="27.2814" width="39.1194" height="38.5314" filterUnits="userSpaceOnUse" color-interpolation-filters="sRGB">
<feFlood flood-opacity="0" result="BackgroundImageFix"/>
<feBlend mode="normal" in="SourceGraphic" in2="BackgroundImageFix" result="shape"/>
<feColorMatrix in="SourceAlpha" type="matrix" values="0 0 0 0 0 0 0 0 0 0 0 0 0 0 0 0 0 0 127 0" result="hardAlpha"/>
<feOffset/>
<feGaussianBlur stdDeviation="3"/>
<feComposite in2="hardAlpha" operator="arithmetic" k2="-1" k3="1"/>
<feColorMatrix type="matrix" values="0 0 0 0 1 0 0 0 0 1 0 0 0 0 1 0 0 0 0.7 0"/>
<feBlend mode="normal" in2="shape" result="effect1_innerShadow_2035_272"/>
</filter>
</defs>
</svg>
